<svg xmlns="http://www.w3.org/2000/svg" width="341.833" height="39" viewBox="0 0 341.833 39">
  <g id="Desktop_Logo" data-name="Desktop Logo" transform="translate(-79.469 -41.72)">
    <text id="Emerson_Visuals" data-name="Emerson Visuals" transform="translate(147.302 70.72)" fill="#101011" font-size="28" font-family="Poppins-SemiBold, Poppins" font-weight="600" letter-spacing="0.1em"><tspan x="0" y="0">Emerson Visuals</tspan></text>
    <g id="Group_87" data-name="Group 87" transform="translate(79.469 44.882)">
      <path id="Path_2851" data-name="Path 2851" d="M1698.465,46.631V39.212a.553.553,0,0,1,.555-.553H1714l4.416,8.527H1699.02A.555.555,0,0,1,1698.465,46.631Z" transform="translate(-1698.465 -38.659)" fill="#101011"/>
      <path id="Path_2852" data-name="Path 2852" d="M1698.465,44.717h21.771l4.437,8.565H1699.02a.555.555,0,0,1-.555-.553V44.717Z" transform="translate(-1698.465 -32.67)" fill="#101011"/>
      <path id="Path_2853" data-name="Path 2853" d="M1699.02,50.794H1726.5l4.424,8.545h-31.9a.555.555,0,0,1-.555-.553V51.347A.555.555,0,0,1,1699.02,50.794Z" transform="translate(-1698.465 -26.663)" fill="#101011"/>
      <path id="Path_2854" data-name="Path 2854" d="M1725.008,53.371l-7.5-14.712h-9.137L1725.3,71.334l16.957-32.669h-9.641Z" transform="translate(-1688.67 -38.659)" fill="#101011"/>
    </g>
  </g>
</svg>
