<?xml version="1.0" encoding="utf-8"?>
<!-- Generator: Adobe Illustrator 26.0.3, SVG Export Plug-In . SVG Version: 6.00 Build 0)  -->
<svg version="1.1" id="Layer_1" xmlns="http://www.w3.org/2000/svg" xmlns:xlink="http://www.w3.org/1999/xlink" x="0px" y="0px"
	 viewBox="0 0 122 87.9" style="enable-background:new 0 0 122 87.9;" xml:space="preserve">
<style type="text/css">
	.st0{opacity:0.5;}
	.st1{fill:none;stroke:#101011;stroke-width:2;}
	.st2{fill:none;stroke:#101011;stroke-width:4;}
	.st3{enable-background:new    ;}
	.st4{fill:#101011;}
</style>
<g id="scroll_down" transform="translate(-877.044 -924.611)" class="st0">
	<path id="Path_3747" class="st1" d="M935.2,1009.6v-54"/>
	<path id="Path_3748" class="st2" d="M923.8,998.4l11.2,11.2l11.2-11.2"/>
	<g class="st3">
		<path class="st4" d="M880.4,940.3c-0.6-0.2-1.1-0.6-1.5-1.1c-0.4-0.5-0.6-1.1-0.6-1.8h2.7c0,0.4,0.2,0.7,0.4,0.9
			c0.2,0.2,0.5,0.3,0.9,0.3c0.4,0,0.7-0.1,0.9-0.3c0.2-0.2,0.3-0.4,0.3-0.7c0-0.3-0.1-0.5-0.3-0.6s-0.4-0.3-0.6-0.4
			c-0.3-0.1-0.6-0.2-1.1-0.4c-0.7-0.2-1.2-0.4-1.7-0.6s-0.8-0.5-1.1-0.9c-0.3-0.4-0.5-0.9-0.5-1.6c0-1,0.4-1.7,1.1-2.3
			c0.7-0.6,1.6-0.8,2.8-0.8c1.2,0,2.1,0.3,2.8,0.8c0.7,0.6,1.1,1.3,1.1,2.3h-2.8c0-0.3-0.1-0.6-0.4-0.8c-0.2-0.2-0.5-0.3-0.9-0.3
			c-0.3,0-0.6,0.1-0.8,0.2c-0.2,0.2-0.3,0.4-0.3,0.7c0,0.3,0.2,0.6,0.5,0.8c0.3,0.2,0.8,0.4,1.5,0.6c0.7,0.2,1.2,0.5,1.7,0.7
			c0.4,0.2,0.8,0.5,1.1,0.9c0.3,0.4,0.5,0.9,0.5,1.5c0,0.6-0.2,1.1-0.5,1.6c-0.3,0.5-0.7,0.9-1.3,1.2s-1.3,0.4-2.1,0.4
			C881.7,940.7,881,940.6,880.4,940.3z"/>
		<path class="st4" d="M889.2,932.5c0.5-0.8,1.1-1.5,1.9-1.9c0.8-0.5,1.7-0.7,2.7-0.7c1.2,0,2.3,0.3,3.2,1s1.5,1.6,1.8,2.7H896
			c-0.2-0.4-0.5-0.8-0.9-1c-0.4-0.2-0.8-0.3-1.3-0.3c-0.8,0-1.4,0.3-1.9,0.8c-0.5,0.6-0.7,1.3-0.7,2.2c0,0.9,0.2,1.7,0.7,2.2
			c0.5,0.5,1.1,0.8,1.9,0.8c0.5,0,0.9-0.1,1.3-0.3c0.4-0.2,0.7-0.6,0.9-1h2.8c-0.3,1.1-0.9,2-1.8,2.7s-2,1-3.2,1
			c-1,0-1.9-0.2-2.7-0.7c-0.8-0.5-1.4-1.1-1.9-1.9c-0.4-0.8-0.7-1.7-0.7-2.8S888.8,933.4,889.2,932.5z"/>
		<path class="st4" d="M906.9,940.6l-2.2-4h-0.6v4h-2.6v-10.5h4.3c0.8,0,1.5,0.1,2.1,0.4s1,0.7,1.3,1.2s0.4,1.1,0.4,1.7
			c0,0.7-0.2,1.3-0.6,1.9c-0.4,0.5-1,0.9-1.7,1.2l2.4,4.2H906.9z M904.1,934.8h1.6c0.5,0,0.8-0.1,1.1-0.3c0.2-0.2,0.4-0.6,0.4-1
			c0-0.4-0.1-0.7-0.4-0.9c-0.2-0.2-0.6-0.3-1.1-0.3h-1.6V934.8z"/>
		<path class="st4" d="M914.7,940c-0.8-0.5-1.5-1.1-2-1.9c-0.5-0.8-0.7-1.8-0.7-2.8s0.2-2,0.7-2.8c0.5-0.8,1.1-1.5,2-1.9
			s1.7-0.7,2.7-0.7c1,0,1.9,0.2,2.7,0.7c0.8,0.5,1.5,1.1,2,1.9c0.5,0.8,0.7,1.7,0.7,2.8s-0.2,2-0.7,2.8s-1.1,1.5-2,1.9
			c-0.8,0.5-1.7,0.7-2.7,0.7C916.4,940.7,915.5,940.5,914.7,940z M919.4,937.5c0.5-0.6,0.8-1.3,0.8-2.2c0-0.9-0.3-1.7-0.8-2.2
			c-0.5-0.6-1.2-0.8-2-0.8c-0.9,0-1.5,0.3-2,0.8c-0.5,0.6-0.8,1.3-0.8,2.2c0,0.9,0.3,1.7,0.8,2.2s1.2,0.8,2,0.8
			C918.2,938.4,918.9,938.1,919.4,937.5z"/>
		<path class="st4" d="M927.9,938.6h3.4v2h-5.9v-10.5h2.6V938.6z"/>
		<path class="st4" d="M936.2,938.6h3.4v2h-5.9v-10.5h2.6V938.6z"/>
		<path class="st4" d="M953.1,930.7c0.8,0.4,1.5,1.1,1.9,1.9s0.7,1.7,0.7,2.8c0,1-0.2,1.9-0.7,2.7c-0.5,0.8-1.1,1.4-1.9,1.9
			c-0.8,0.4-1.8,0.7-2.9,0.7h-3.9v-10.5h3.9C951.3,930.1,952.2,930.3,953.1,930.7z M952.2,937.6c0.5-0.5,0.8-1.3,0.8-2.2
			s-0.3-1.7-0.8-2.3s-1.3-0.8-2.3-0.8h-1.2v6.1h1.2C951,938.4,951.7,938.1,952.2,937.6z"/>
		<path class="st4" d="M960.5,940c-0.8-0.5-1.5-1.1-2-1.9s-0.7-1.8-0.7-2.8s0.2-2,0.7-2.8c0.5-0.8,1.1-1.5,2-1.9s1.7-0.7,2.7-0.7
			s1.9,0.2,2.7,0.7s1.5,1.1,2,1.9c0.5,0.8,0.7,1.7,0.7,2.8s-0.2,2-0.7,2.8c-0.5,0.8-1.1,1.5-2,1.9s-1.7,0.7-2.7,0.7
			S961.3,940.5,960.5,940z M965.2,937.5c0.5-0.6,0.8-1.3,0.8-2.2c0-0.9-0.3-1.7-0.8-2.2s-1.2-0.8-2-0.8c-0.8,0-1.5,0.3-2,0.8
			c-0.5,0.6-0.8,1.3-0.8,2.2c0,0.9,0.3,1.7,0.8,2.2s1.2,0.8,2,0.8C964.1,938.4,964.7,938.1,965.2,937.5z"/>
		<path class="st4" d="M985.6,930.1l-2.7,10.5h-3.1l-1.7-6.9l-1.7,6.9h-3.1l-2.7-10.5h2.7l1.5,7.7l1.9-7.7h2.8l1.8,7.7l1.5-7.7
			H985.6z"/>
		<path class="st4" d="M997.5,940.6h-2.6l-4.3-6.5v6.5h-2.6v-10.5h2.6l4.3,6.5v-6.5h2.6V940.6z"/>
	</g>
</g>
</svg>
