<?xml version="1.0" encoding="utf-8"?>
<!-- Generator: Adobe Illustrator 26.0.3, SVG Export Plug-In . SVG Version: 6.00 Build 0)  -->
<svg version="1.1" id="Layer_1" xmlns="http://www.w3.org/2000/svg" xmlns:xlink="http://www.w3.org/1999/xlink" x="0px" y="0px"
	 viewBox="0 0 156 87.9" style="enable-background:new 0 0 156 87.9;" xml:space="preserve">
<style type="text/css">
	.st0{opacity:0.5;}
	.st1{fill:none;stroke:#101011;stroke-width:2;}
	.st2{fill:none;stroke:#101011;stroke-width:4;}
	.st3{enable-background:new    ;}
	.st4{fill:#101011;}
</style>
<g class="st0">
	<path id="Path_3747" class="st1" d="M75.2,85V31"/>
	<path id="Path_3748" class="st2" d="M63.8,73.8L75,85l11.2-11.2"/>
	<g class="st3">
		<path class="st4" d="M88.9,11.9c0.4,0.5,0.6,1,0.6,1.6c0,0.9-0.3,1.6-0.9,2.1c-0.6,0.5-1.5,0.8-2.6,0.8h-4.9V5.9h4.7
			c1.1,0,1.9,0.2,2.5,0.7s0.9,1.2,0.9,2c0,0.6-0.2,1.1-0.5,1.5s-0.8,0.7-1.3,0.9C88,11.1,88.5,11.4,88.9,11.9z M83.6,10.1h1.7
			c0.4,0,0.7-0.1,1-0.3c0.2-0.2,0.3-0.5,0.3-0.8c0-0.4-0.1-0.6-0.3-0.8s-0.5-0.3-1-0.3h-1.7V10.1z M86.5,14c0.2-0.2,0.4-0.5,0.4-0.8
			s-0.1-0.7-0.4-0.9c-0.2-0.2-0.6-0.3-1-0.3h-1.9v2.3h1.9C85.9,14.3,86.3,14.2,86.5,14z"/>
		<path class="st4" d="M94.6,7.9V10H98v2h-3.4v2.3h3.9v2.1H92V5.9h6.5V8L94.6,7.9L94.6,7.9z"/>
		<path class="st4" d="M103.9,14.4h3.4v2h-5.9V5.9h2.6L103.9,14.4L103.9,14.4z"/>
		<path class="st4" d="M111.8,15.8c-0.8-0.5-1.5-1.1-2-1.9c-0.5-0.8-0.7-1.8-0.7-2.8s0.2-2,0.7-2.8s1.1-1.5,2-1.9s1.7-0.7,2.7-0.7
			s1.9,0.2,2.7,0.7s1.5,1.1,2,1.9c0.5,0.8,0.7,1.7,0.7,2.8s-0.2,2-0.7,2.8s-1.1,1.5-2,1.9c-0.8,0.5-1.7,0.7-2.7,0.7
			C113.6,16.5,112.7,16.3,111.8,15.8z M116.6,13.3c0.5-0.6,0.8-1.3,0.8-2.2s-0.3-1.7-0.8-2.2c-0.5-0.6-1.2-0.8-2-0.8
			c-0.9,0-1.5,0.3-2,0.8c-0.5,0.6-0.8,1.3-0.8,2.2s0.3,1.7,0.8,2.2s1.2,0.8,2,0.8C115.4,14.2,116.1,13.9,116.6,13.3z"/>
		<path class="st4" d="M137,5.9l-2.7,10.5h-3.1l-1.7-6.9l-1.7,6.9h-3.1L122,5.9h2.7l1.5,7.7l1.9-7.7h2.8l1.8,7.7l1.5-7.7H137z"/>
	</g>
	<g>
		<path d="M22,16.5c-2.3,0-4.1-1.1-4.2-3.3h2.8c0.1,0.8,0.6,1.2,1.3,1.2c0.8,0,1.2-0.4,1.2-1c0-2-5.3-0.9-5.3-4.7
			c0-2,1.7-3.1,3.9-3.1c2.3,0,3.9,1.2,4,3.2H23c0-0.7-0.5-1.1-1.2-1.1c-0.6,0-1.1,0.3-1.1,1c0,1.9,5.3,1,5.3,4.6
			C25.9,15,24.5,16.5,22,16.5z"/>
		<path d="M32.4,5.6c2.5,0,4.5,1.4,5.1,3.7h-2.9C34.2,8.5,33.4,8,32.4,8c-1.6,0-2.7,1.2-2.7,3.1s1.1,3.1,2.7,3.1
			c1,0,1.8-0.5,2.2-1.4h2.9c-0.6,2.3-2.5,3.7-5.1,3.7c-3.1,0-5.4-2.2-5.4-5.4S29.3,5.6,32.4,5.6z"/>
		<path d="M43.5,5.8c2.6,0,3.9,1.5,3.9,3.4c0,1.3-0.7,2.6-2.4,3.1l2.5,4.2h-2.9l-2.2-4h-0.6v4h-2.6V5.8H43.5z M43.3,7.9h-1.6v2.6
			h1.6c1,0,1.4-0.5,1.4-1.3C44.7,8.4,44.3,7.9,43.3,7.9z"/>
		<path d="M54,16.5c-3,0-5.5-2.3-5.5-5.5c0-3.2,2.5-5.5,5.5-5.5c3,0,5.5,2.2,5.5,5.5C59.5,14.3,57.1,16.5,54,16.5z M54,14.2
			c1.7,0,2.8-1.2,2.8-3.1C56.9,9.2,55.7,8,54,8c-1.7,0-2.8,1.2-2.8,3.1C51.2,12.9,52.3,14.2,54,14.2z"/>
		<path d="M63.5,5.8v8.7h3.4v2h-6V5.8H63.5z"/>
		<path d="M70.8,5.8v8.7h3.4v2h-6V5.8H70.8z"/>
	</g>
</g>
</svg>
