<?xml version="1.0" encoding="utf-8"?>
<!-- Generator: Adobe Illustrator 26.0.3, SVG Export Plug-In . SVG Version: 6.00 Build 0)  -->
<svg version="1.1" id="Layer_1" xmlns="http://www.w3.org/2000/svg" xmlns:xlink="http://www.w3.org/1999/xlink" x="0px" y="0px"
	 viewBox="0 0 156 87.9" style="enable-background:new 0 0 156 87.9;" xml:space="preserve">
<style type="text/css">
	.st0{opacity:0.5;}
	.st1{fill:none;stroke:#101011;stroke-width:2;}
	.st2{fill:none;stroke:#101011;stroke-width:4;}
	.st3{enable-background:new    ;}
	.st4{fill:#101011;}
</style>
<g id="scroll_down" transform="translate(-860.044 -924.611)" class="st0">
	<path id="Path_3747" class="st1" d="M935.2,1009.6v-54"/>
	<path id="Path_3748" class="st2" d="M923.8,998.4l11.2,11.2l11.2-11.2"/>
	<g class="st3">
		<path class="st4" d="M869.2,935.1c-0.3,0.5-0.7,0.9-1.3,1.2c-0.6,0.3-1.3,0.5-2.2,0.5h-1.6v3.8h-2.6v-10.5h4.2
			c0.8,0,1.5,0.1,2.1,0.4s1,0.7,1.3,1.2c0.3,0.5,0.4,1.1,0.4,1.8C869.6,934.1,869.5,934.6,869.2,935.1z M866.6,934.4
			c0.2-0.2,0.4-0.6,0.4-1s-0.1-0.7-0.4-1c-0.2-0.2-0.6-0.3-1.1-0.3h-1.4v2.6h1.4C866,934.8,866.4,934.7,866.6,934.4z"/>
		<path class="st4" d="M874.3,940c-0.8-0.5-1.5-1.1-2-1.9c-0.5-0.8-0.7-1.8-0.7-2.8s0.2-2,0.7-2.8c0.5-0.8,1.1-1.5,2-1.9
			s1.7-0.7,2.7-0.7c1,0,1.9,0.2,2.7,0.7c0.8,0.5,1.5,1.1,2,1.9c0.5,0.8,0.7,1.7,0.7,2.8s-0.2,2-0.7,2.8s-1.1,1.5-2,1.9
			c-0.8,0.5-1.7,0.7-2.7,0.7C876,940.7,875.1,940.5,874.3,940z M879,937.5c0.5-0.6,0.8-1.3,0.8-2.2c0-0.9-0.3-1.7-0.8-2.2
			c-0.5-0.6-1.2-0.8-2-0.8c-0.9,0-1.5,0.3-2,0.8c-0.5,0.6-0.8,1.3-0.8,2.2c0,0.9,0.3,1.7,0.8,2.2s1.2,0.8,2,0.8
			C877.9,938.4,878.5,938.1,879,937.5z"/>
		<path class="st4" d="M890.3,940.6l-2.2-4h-0.6v4H885v-10.5h4.3c0.8,0,1.5,0.1,2.1,0.4s1,0.7,1.3,1.2s0.4,1.1,0.4,1.7
			c0,0.7-0.2,1.3-0.6,1.9c-0.4,0.5-1,0.9-1.7,1.2l2.4,4.2H890.3z M887.5,934.8h1.6c0.5,0,0.8-0.1,1.1-0.3c0.2-0.2,0.4-0.6,0.4-1
			c0-0.4-0.1-0.7-0.4-0.9c-0.2-0.2-0.6-0.3-1.1-0.3h-1.6V934.8z"/>
		<path class="st4" d="M903.4,930.1v2.1h-2.8v8.5h-2.6v-8.5h-2.8v-2.1H903.4z"/>
		<path class="st4" d="M912.7,930.1v2.1h-4.3v2.2h3.2v2h-3.2v4.3h-2.6v-10.5H912.7z"/>
		<path class="st4" d="M917.4,940c-0.8-0.5-1.5-1.1-2-1.9c-0.5-0.8-0.7-1.8-0.7-2.8s0.2-2,0.7-2.8c0.5-0.8,1.1-1.5,2-1.9
			s1.7-0.7,2.7-0.7c1,0,1.9,0.2,2.7,0.7c0.8,0.5,1.5,1.1,2,1.9c0.5,0.8,0.7,1.7,0.7,2.8s-0.2,2-0.7,2.8s-1.1,1.5-2,1.9
			c-0.8,0.5-1.7,0.7-2.7,0.7C919.2,940.7,918.3,940.5,917.4,940z M922.2,937.5c0.5-0.6,0.8-1.3,0.8-2.2c0-0.9-0.3-1.7-0.8-2.2
			c-0.5-0.6-1.2-0.8-2-0.8c-0.9,0-1.5,0.3-2,0.8c-0.5,0.6-0.8,1.3-0.8,2.2c0,0.9,0.3,1.7,0.8,2.2s1.2,0.8,2,0.8
			C921,938.4,921.7,938.1,922.2,937.5z"/>
		<path class="st4" d="M930.7,938.6h3.4v2h-5.9v-10.5h2.6V938.6z"/>
		<path class="st4" d="M939,930.1v10.5h-2.6v-10.5H939z"/>
		<path class="st4" d="M944.2,940c-0.8-0.5-1.5-1.1-2-1.9s-0.7-1.8-0.7-2.8s0.2-2,0.7-2.8c0.5-0.8,1.1-1.5,2-1.9s1.7-0.7,2.7-0.7
			s1.9,0.2,2.7,0.7s1.5,1.1,2,1.9c0.5,0.8,0.7,1.7,0.7,2.8s-0.2,2-0.7,2.8c-0.5,0.8-1.1,1.5-2,1.9s-1.7,0.7-2.7,0.7
			S945,940.5,944.2,940z M948.9,937.5c0.5-0.6,0.8-1.3,0.8-2.2c0-0.9-0.3-1.7-0.8-2.2s-1.2-0.8-2-0.8c-0.8,0-1.5,0.3-2,0.8
			c-0.5,0.6-0.8,1.3-0.8,2.2c0,0.9,0.3,1.7,0.8,2.2s1.2,0.8,2,0.8C947.8,938.4,948.4,938.1,948.9,937.5z"/>
		<path class="st4" d="M967,936.1c0.4,0.5,0.6,1,0.6,1.6c0,0.9-0.3,1.6-0.9,2.1c-0.6,0.5-1.5,0.8-2.6,0.8h-4.9v-10.5h4.7
			c1.1,0,1.9,0.2,2.5,0.7s0.9,1.2,0.9,2c0,0.6-0.2,1.1-0.5,1.5s-0.8,0.7-1.3,0.9C966.1,935.3,966.6,935.6,967,936.1z M961.7,934.3
			h1.7c0.4,0,0.7-0.1,1-0.3c0.2-0.2,0.3-0.5,0.3-0.8c0-0.4-0.1-0.6-0.3-0.8c-0.2-0.2-0.5-0.3-1-0.3h-1.7V934.3z M964.6,938.2
			c0.2-0.2,0.4-0.5,0.4-0.8s-0.1-0.7-0.4-0.9c-0.2-0.2-0.6-0.3-1-0.3h-1.9v2.3h1.9C964,938.5,964.4,938.4,964.6,938.2z"/>
		<path class="st4" d="M972.7,932.1v2.1h3.4v2h-3.4v2.3h3.9v2.1h-6.5v-10.5h6.5v2.1H972.7z"/>
		<path class="st4" d="M982,938.6h3.4v2h-5.9v-10.5h2.6V938.6z"/>
		<path class="st4" d="M989.9,940c-0.8-0.5-1.5-1.1-2-1.9c-0.5-0.8-0.7-1.8-0.7-2.8s0.2-2,0.7-2.8c0.5-0.8,1.1-1.5,2-1.9
			s1.7-0.7,2.7-0.7c1,0,1.9,0.2,2.7,0.7c0.8,0.5,1.5,1.1,2,1.9c0.5,0.8,0.7,1.7,0.7,2.8s-0.2,2-0.7,2.8c-0.5,0.8-1.1,1.5-2,1.9
			c-0.8,0.5-1.7,0.7-2.7,0.7C991.7,940.7,990.8,940.5,989.9,940z M994.7,937.5c0.5-0.6,0.8-1.3,0.8-2.2c0-0.9-0.3-1.7-0.8-2.2
			c-0.5-0.6-1.2-0.8-2-0.8c-0.9,0-1.5,0.3-2,0.8c-0.5,0.6-0.8,1.3-0.8,2.2c0,0.9,0.3,1.7,0.8,2.2s1.2,0.8,2,0.8
			C993.5,938.4,994.2,938.1,994.7,937.5z"/>
		<path class="st4" d="M1015.1,930.1l-2.7,10.5h-3.1l-1.7-6.9l-1.7,6.9h-3.1l-2.7-10.5h2.7l1.5,7.7l1.9-7.7h2.8l1.8,7.7l1.5-7.7
			H1015.1z"/>
	</g>
</g>
</svg>
